<svg width="24" height="24" viewBox="0 0 24 24" fill="none" xmlns="http://www.w3.org/2000/svg">
<g clip-path="url(#clip0_2150_1627)">
<path d="M23.4438 12.2244C23.4438 11.2412 23.364 10.5236 23.1913 9.77954H11.9634V14.2175H18.5539C18.4211 15.3204 17.7036 16.9814 16.1091 18.0975L16.0867 18.246L19.6368 20.9962L19.8827 21.0208C22.1416 18.9346 23.4438 15.8652 23.4438 12.2244Z" fill="#4285F4"/>
<path d="M11.9635 23.9176C15.1923 23.9176 17.9029 22.8545 19.8828 21.0209L16.1092 18.0976C15.0993 18.8018 13.744 19.2934 11.9635 19.2934C8.80107 19.2934 6.11701 17.2074 5.16021 14.324L5.01997 14.3359L1.32855 17.1927L1.28027 17.3269C3.24681 21.2334 7.28623 23.9176 11.9635 23.9176Z" fill="#34A853"/>
<path d="M5.16039 14.324C4.90794 13.58 4.76183 12.7826 4.76183 11.9589C4.76183 11.135 4.90794 10.3378 5.14711 9.59366L5.14042 9.43519L1.40275 6.53247L1.28046 6.59064C0.469952 8.21174 0.00488281 10.0322 0.00488281 11.9589C0.00488281 13.8855 0.469952 15.7059 1.28046 17.327L5.16039 14.324Z" fill="#FBBC05"/>
<path d="M11.9635 4.62403C14.209 4.62403 15.7238 5.59401 16.5875 6.40461L19.9625 3.10928C17.8897 1.1826 15.1923 0 11.9635 0C7.28623 0 3.24681 2.68406 1.28027 6.59056L5.14693 9.59359C6.11701 6.7102 8.80107 4.62403 11.9635 4.62403Z" fill="#EB4335"/>
</g>
<defs>
<clipPath id="clip0_2150_1627">
<rect width="23.46" height="24" fill="white"/>
</clipPath>
</defs>
</svg>
