<svg width="24" height="24" viewBox="0 0 24 24" fill="none" xmlns="http://www.w3.org/2000/svg">
<path fill-rule="evenodd" clip-rule="evenodd" d="M3.25378 18.4765C2.93211 18.7982 2.49583 18.9789 2.04092 18.9789C1.58601 18.9789 1.14974 18.7982 0.828065 18.4765C0.506396 18.1549 0.325684 17.7186 0.325684 17.2637C0.325684 16.8088 0.506396 16.3725 0.828065 16.0508L6.54178 10.3388L6.55378 10.3268C7.02061 9.86959 7.64804 9.61351 8.30149 9.61351C8.95495 9.61351 9.58238 9.86959 10.0492 10.3268L10.0612 10.3388L12.9772 13.2548L17.0006 8.99997L15.2178 7.21711C15.0382 7.03731 14.9159 6.80832 14.8664 6.55906C14.8169 6.30981 14.8424 6.05147 14.9396 5.81667C15.0368 5.58188 15.2014 5.38116 15.4126 5.23987C15.6239 5.09858 15.8722 5.02305 16.1264 5.02283H22.3869C22.7279 5.02283 23.0549 5.15829 23.2961 5.3994C23.5372 5.64052 23.6726 5.96755 23.6726 6.30854V12.5691C23.6724 12.8232 23.5969 13.0716 23.4556 13.2828C23.3143 13.4941 23.1136 13.6587 22.8788 13.7559C22.644 13.8531 22.3857 13.8786 22.1364 13.8291C21.8871 13.7795 21.6582 13.6573 21.4784 13.4777L19.4264 11.424L14.7909 16.3285C14.5619 16.5649 14.2884 16.7537 13.9861 16.8841C13.6839 17.0144 13.3588 17.0838 13.0297 17.0881C12.7006 17.0924 12.3738 17.0316 12.0683 16.9092C11.7627 16.7868 11.4843 16.6052 11.2492 16.3748L11.2372 16.3628L8.30064 13.428L3.25378 18.4765Z" fill="white"/>
</svg>
