<svg width="72" height="72" viewBox="0 0 72 72" fill="none" xmlns="http://www.w3.org/2000/svg">
<path d="M36 9C32.4196 12.5804 30.4081 17.4365 30.4081 22.5C30.4081 27.5635 32.4196 32.4196 36 36C39.5804 39.5804 44.4365 41.5919 49.5 41.5919C54.5635 41.5919 59.4196 39.5804 63 36C63 41.3401 61.4165 46.5603 58.4497 51.0004C55.4829 55.4405 51.2661 58.9012 46.3325 60.9447C41.3989 62.9883 35.9701 63.523 30.7326 62.4812C25.4951 61.4394 20.6841 58.8679 16.9081 55.0919C13.1321 51.3159 10.5606 46.5049 9.51881 41.2674C8.47701 36.03 9.0117 30.6012 11.0553 25.6675C13.0988 20.7339 16.5595 16.5171 20.9996 13.5503C25.4397 10.5835 30.6599 9 36 9Z" fill="white"/>
</svg>
