<svg width="48" height="48" viewBox="0 0 48 48" fill="none" xmlns="http://www.w3.org/2000/svg">
<rect width="48" height="48" rx="24" fill="#FF33A8"/>
<path fill-rule="evenodd" clip-rule="evenodd" d="M20.106 14.553C20.189 14.3869 20.3166 14.2472 20.4745 14.1496C20.6324 14.0519 20.8143 14.0001 21 14H27C27.1857 14.0001 27.3676 14.0519 27.5255 14.1496C27.6834 14.2472 27.811 14.3869 27.894 14.553L29.618 18H32C32.2652 18 32.5196 18.1054 32.7071 18.2929C32.8946 18.4804 33 18.7348 33 19C33 19.2652 32.8946 19.5196 32.7071 19.7071C32.5196 19.8946 32.2652 20 32 20H31V31C31 31.7956 30.6839 32.5587 30.1213 33.1213C29.5587 33.6839 28.7956 34 28 34H20C19.2044 34 18.4413 33.6839 17.8787 33.1213C17.3161 32.5587 17 31.7956 17 31V20H16C15.7348 20 15.4804 19.8946 15.2929 19.7071C15.1054 19.5196 15 19.2652 15 19C15 18.7348 15.1054 18.4804 15.2929 18.2929C15.4804 18.1054 15.7348 18 16 18H18.382L20.106 14.553ZM26.382 16L27.382 18H20.618L21.618 16H26.382ZM23 23C23 22.7348 22.8946 22.4804 22.7071 22.2929C22.5196 22.1054 22.2652 22 22 22C21.7348 22 21.4804 22.1054 21.2929 22.2929C21.1054 22.4804 21 22.7348 21 23V29C21 29.2652 21.1054 29.5196 21.2929 29.7071C21.4804 29.8946 21.7348 30 22 30C22.2652 30 22.5196 29.8946 22.7071 29.7071C22.8946 29.5196 23 29.2652 23 29V23ZM27 23C27 22.7348 26.8946 22.4804 26.7071 22.2929C26.5196 22.1054 26.2652 22 26 22C25.7348 22 25.4804 22.1054 25.2929 22.2929C25.1054 22.4804 25 22.7348 25 23V29C25 29.2652 25.1054 29.5196 25.2929 29.7071C25.4804 29.8946 25.7348 30 26 30C26.2652 30 26.5196 29.8946 26.7071 29.7071C26.8946 29.5196 27 29.2652 27 29V23Z" fill="white"/>
</svg>
