<svg width="24" height="24" viewBox="0 0 24 24" fill="none" xmlns="http://www.w3.org/2000/svg">
<path fill-rule="evenodd" clip-rule="evenodd" d="M3.25378 5.52338C3.09451 5.3641 2.90542 5.23776 2.69732 5.15156C2.48921 5.06536 2.26617 5.021 2.04092 5.021C1.58601 5.021 1.14974 5.20171 0.828065 5.52338C0.506396 5.84505 0.325684 6.28133 0.325684 6.73624C0.325684 7.19114 0.506396 7.62742 0.828065 7.94909L6.54178 13.6611L6.55378 13.6731C7.02061 14.1303 7.64804 14.3864 8.30149 14.3864C8.95495 14.3864 9.58238 14.1303 10.0492 13.6731L10.0612 13.6611L12.9772 10.7451L17.0006 14.9999L15.2178 16.7828C15.0382 16.9626 14.9159 17.1916 14.8664 17.4409C14.8169 17.6901 14.8424 17.9485 14.9396 18.1832C15.0368 18.418 15.2014 18.6188 15.4126 18.7601C15.6239 18.9013 15.8722 18.9769 16.1264 18.9771H22.3869C22.7279 18.9771 23.0549 18.8416 23.2961 18.6005C23.5372 18.3594 23.6726 18.0324 23.6726 17.6914V11.4342C23.6724 11.1801 23.5969 10.9317 23.4556 10.7205C23.3143 10.5093 23.1136 10.3447 22.8788 10.2475C22.644 10.1502 22.3857 10.1248 22.1364 10.1743C21.8871 10.2238 21.6582 10.3461 21.4784 10.5257L19.4264 12.5777L14.7909 7.67481C14.5619 7.4384 14.2884 7.2496 13.9861 7.11925C13.6839 6.98891 13.3588 6.91959 13.0297 6.91529C12.7006 6.91099 12.3738 6.97179 12.0683 7.09419C11.7627 7.21659 11.4843 7.39818 11.2492 7.62852L11.2372 7.63881L8.30064 10.5737L3.25378 5.52338Z" fill="white"/>
</svg>
