<svg width="24" height="24" viewBox="0 0 24 24" fill="none" xmlns="http://www.w3.org/2000/svg">
<path d="M18.4395 14.5973C19.0657 14.5978 19.6661 14.847 20.1087 15.2901C20.5514 15.7332 20.8 16.3339 20.8 16.9602V17.9243C20.8 18.5261 20.612 19.1128 20.2624 19.6026C18.639 21.8752 15.9886 23 12.3974 23C8.80405 23 6.15473 21.8742 4.53553 19.6015C4.18704 19.1121 3.99984 18.5262 4 17.9254V16.9592C4.00028 16.3329 4.24918 15.7323 4.692 15.2894C5.13483 14.8465 5.73535 14.5975 6.3616 14.5973H18.4395ZM12.3963 2C13.0858 2 13.7685 2.13582 14.4055 2.39971C15.0425 2.6636 15.6213 3.05039 16.1089 3.538C16.5964 4.0256 16.9831 4.60447 17.247 5.24156C17.5108 5.87865 17.6467 6.56147 17.6467 7.25105C17.6467 7.94063 17.5108 8.62345 17.247 9.26054C16.9831 9.89763 16.5964 10.4765 16.1089 10.9641C15.6213 11.4517 15.0425 11.8385 14.4055 12.1024C13.7685 12.3663 13.0858 12.5021 12.3963 12.5021C11.0039 12.5021 9.66841 11.9489 8.68378 10.9641C7.69915 9.97934 7.146 8.64372 7.146 7.25105C7.146 5.85839 7.69915 4.52276 8.68378 3.538C9.66841 2.55323 11.0039 2 12.3963 2Z" fill="white"/>
</svg>
