<svg width="24" height="24" viewBox="0 0 24 24" fill="none" xmlns="http://www.w3.org/2000/svg">
<path fill-rule="evenodd" clip-rule="evenodd" d="M1 9.61377V12.2413C1 13.7347 3.39152 14.9906 6.59614 15.2683V11.3587L6.60077 11.1736C4.82179 11.0471 3.20174 10.6691 1.93192 10.1029C1.61051 9.96123 1.29914 9.79782 1 9.61377ZM14.8862 4.08571V6.35371C12.9792 6.41697 11.1879 6.78571 9.77454 7.4152C9 7.75926 8.25323 8.22057 7.6731 8.82846C7.54041 8.96731 7.41492 9.118 7.29663 9.28051C5.46519 9.21263 3.86673 8.85314 2.7188 8.34091C2.07695 8.05549 1.61717 7.7392 1.33173 7.43834C1.17649 7.29114 1.06218 7.10612 1 6.90143V4.08571C1 2.38086 4.10743 1 7.94311 1C11.7772 1 14.8862 2.38086 14.8862 4.08571ZM7.94311 5.52211C10.6201 5.52211 12.7909 4.8988 12.7909 4.12891C12.7909 3.35749 10.6201 2.73417 7.94156 2.73417C5.26307 2.73417 3.09373 3.35903 3.09373 4.12891C3.09373 4.8988 5.26615 5.52211 7.94311 5.52211ZM8.52479 19.5143V16.8868C8.81588 17.0658 9.12704 17.2288 9.45825 17.3759C11.0397 18.0825 13.1612 18.4945 15.4679 18.4945C17.773 18.4945 19.8961 18.0825 21.4775 17.3759C21.8088 17.2298 22.1199 17.0668 22.411 16.8868V19.5143C22.411 21.2114 19.3252 22.6 15.4679 22.6C11.6106 22.6 8.52479 21.2114 8.52479 19.5143ZM8.85805 14.7114C8.70248 14.5648 8.58764 14.3803 8.52479 14.176V11.3587C8.52479 9.65543 11.6338 8.27303 15.4679 8.27303C19.302 8.27303 22.411 9.65543 22.411 11.3587V14.176C22.3484 14.3809 22.2335 14.5659 22.0777 14.7129C21.7923 15.0138 21.334 15.3301 20.6922 15.617C19.4116 16.1879 17.5678 16.5674 15.4679 16.5674C13.368 16.5674 11.5258 16.1879 10.2436 15.617C9.60174 15.3301 9.14349 15.0138 8.85805 14.7114ZM20.3157 11.4019C20.3157 12.1734 18.1448 12.7967 15.4679 12.7967C12.7894 12.7967 10.6201 12.1718 10.6201 11.4019C10.6201 10.6321 12.7894 10.0072 15.4679 10.0072C18.1464 10.0072 20.3157 10.6321 20.3157 11.4019Z" fill="white"/>
</svg>
