<svg width="24" height="24" viewBox="0 0 24 24" fill="none" xmlns="http://www.w3.org/2000/svg">
<path d="M20.5927 1.08258C19.933 1.07676 18.9755 1.51162 17.7685 2.43609C17.7432 2.41266 17.716 2.38987 17.6878 2.36859C17.221 2.01576 16.5569 2.10825 16.204 2.57517C15.8567 3.03469 15.9409 3.68611 16.3886 4.04297C16.1695 4.71501 16.3384 5.38594 16.7211 5.92383C16.7054 6.23798 16.5941 6.5025 16.2537 6.76758C15.8237 7.10264 15.3661 7.52967 14.909 8.0318C13.8643 7.4993 13.0635 6.66295 12.3777 5.70703L12.4759 5.66601C14.1986 4.93758 13.5331 3.77864 11.9589 4.44431C11.6433 3.69825 11.2714 3.38058 10.9862 3.37355C10.5694 3.36323 10.3379 4.01653 10.7371 4.96139C8.80728 5.77739 9.42368 6.95709 11.2542 6.18305L11.3392 6.14648C12.0079 7.45439 12.8949 8.39592 14.0345 9.0907C13.2311 10.1637 12.4936 11.448 11.9968 12.8452C11.3049 12.3037 10.6337 12.0621 9.95932 12.0659C9.03776 12.0711 8.11034 12.5335 7.12039 13.3067L7.09254 13.2627C6.02988 11.5833 4.85159 12.201 5.97195 13.9717C4.51217 14.8953 4.99728 16.1585 6.68238 15.0923C7.59626 16.5369 8.80315 15.964 7.80302 14.3833L7.71068 14.2368C9.42068 13.4742 10.681 13.7265 11.4285 15.2094C11.3729 15.6593 11.3499 16.1126 11.3596 16.5658C9.87926 19.1435 7.44429 21.6503 4.80153 20.0683C2.64504 18.7774 1.45676 13.605 4.03254 12.4131C-0.132772 13.0694 0.651916 19.8266 3.50084 21.8862C6.73006 24.2207 11.8024 22.3451 14.1166 18.7222C14.5493 18.2887 14.9623 17.8145 15.3514 17.31C16.6729 17.769 17.5796 18.9286 17.9193 20.4302L17.8329 20.4244C15.9657 20.3066 16.0435 21.6408 17.7494 21.7486C17.6239 23.7382 18.9649 23.5561 19.0736 21.832C21.1647 21.9641 21.1408 20.633 19.157 20.5078L18.996 20.4975C19.1047 18.2652 18.0072 16.7482 16.5306 15.5479C17.0439 14.655 17.4716 13.7056 17.7845 12.7339C18.4785 13.5455 19.5002 13.6808 20.871 13.2554C21.6027 15.0565 22.851 14.6623 22.0883 12.728C23.6952 12.0942 23.4571 10.7617 21.6019 11.4932C20.975 9.90286 19.6823 10.2407 20.3685 11.981L20.4609 12.214C19.1764 12.5265 18.6416 11.957 18.2138 10.9893C18.3814 9.99131 18.4134 8.98945 18.2782 8.01858C18.2137 7.55517 18.514 7.30289 18.8349 7.06059C19.2128 7.05731 19.5891 6.95151 19.9277 6.71634C20.3917 7.03355 21.0281 6.93366 21.3705 6.48056C21.7234 6.01369 21.6309 5.34956 21.164 4.99669C21.1325 4.97294 21.0997 4.95094 21.0658 4.93078C21.9946 2.46473 21.7523 1.0927 20.5927 1.08258Z" fill="white"/>
</svg>
