<svg width="24" height="24" viewBox="0 0 24 24" fill="none" xmlns="http://www.w3.org/2000/svg">
<path d="M17.2105 13.7143V17.1429H13.7368V19.4286H17.2105V22.8571H19.5263V19.4286H23V17.1429H19.5263V13.7143M11.4211 0C10.8069 0 10.2178 0.240816 9.78354 0.66947C9.34925 1.09812 9.10526 1.67951 9.10526 2.28571C9.09714 2.39605 9.09714 2.50681 9.10526 2.61714C5.77053 3.58857 3.31579 6.65143 3.31579 10.2857V17.1429L1 19.4286V20.5714H11.8263C11.5607 19.8378 11.4236 19.0648 11.4211 18.2857C11.4211 16.4671 12.153 14.7229 13.4559 13.437C14.7588 12.151 16.5259 11.4286 18.3684 11.4286C18.7566 11.4309 19.1439 11.4653 19.5263 11.5314V10.2857C19.5263 6.65143 17.0716 3.58857 13.7368 2.61714C13.745 2.50681 13.745 2.39605 13.7368 2.28571C13.7368 1.67951 13.4929 1.09812 13.0586 0.66947C12.6243 0.240816 12.0352 0 11.4211 0ZM9.10526 21.7143C9.10526 22.3205 9.34925 22.9019 9.78354 23.3305C10.2178 23.7592 10.8069 24 11.4211 24C11.7974 24 12.1681 23.9094 12.5009 23.7362C12.8338 23.5629 13.1189 23.3122 13.3316 23.0057C12.9571 22.6144 12.6307 22.1809 12.3589 21.7143H9.10526Z" fill="white"/>
</svg>
