<svg width="24" height="24" viewBox="0 0 24 24" fill="none" xmlns="http://www.w3.org/2000/svg">
<path d="M21.797 14.15H2.2253C2.10155 14.15 2.00031 14.2512 2.00031 14.375V16.0625C2.00031 16.1862 2.10155 16.2875 2.2253 16.2875H19.2461L15.1878 21.4344C15.0725 21.5806 15.1765 21.8 15.365 21.8H17.404C17.5418 21.8 17.6711 21.7381 17.7583 21.6284L22.5057 15.6069C22.9698 15.0162 22.5507 14.15 21.797 14.15ZM22.4748 7.5125H5.45397L9.5123 2.36562C9.62761 2.21937 9.52355 2 9.33511 2H7.29611C7.1583 2 7.02893 2.06188 6.94174 2.17156L2.19436 8.19313C1.73031 8.78375 2.14937 9.65 2.90028 9.65H22.4748C22.5985 9.65 22.6998 9.54875 22.6998 9.425V7.7375C22.6998 7.61375 22.5985 7.5125 22.4748 7.5125Z" fill="white"/>
</svg>
