<svg width="24" height="24" viewBox="0 0 24 24" fill="none" xmlns="http://www.w3.org/2000/svg">
<path d="M22 19.4286V20.5714H1V19.4286L3.33333 17.1429V10.2857C3.33333 6.74286 5.70167 3.62286 9.16667 2.61714V2.28571C9.16667 1.67951 9.4125 1.09812 9.85008 0.66947C10.2877 0.240816 10.8812 0 11.5 0C12.1188 0 12.7123 0.240816 13.1499 0.66947C13.5875 1.09812 13.8333 1.67951 13.8333 2.28571V2.61714C17.2983 3.62286 19.6667 6.74286 19.6667 10.2857V17.1429L22 19.4286ZM13.8333 21.7143C13.8333 22.3205 13.5875 22.9019 13.1499 23.3305C12.7123 23.7592 12.1188 24 11.5 24C10.8812 24 10.2877 23.7592 9.85008 23.3305C9.4125 22.9019 9.16667 22.3205 9.16667 21.7143" fill="white"/>
</svg>
